# xmcd
#
# Track frame offsets:
#	150
#	30148
#	52318
#	70294
#	94004
#	112572
#	129232
#	153365
#	174232
#	201004
#	218478
#	232088
#
# Disc length: 3249
#
# Revision: 2
# Processed by: cddbd v1.5.1PL0 Copyright (c) Steve Scherf et al.
# Submitted via: audiograbber 1.80
# Normalized: r1:DSETVAR1
#
DISCID=910caf0c
DTITLE=Various Artist - Romantic Rock
DYEAR=1900
DGENRE=
TTITLE0=Rainbow - Catch the Rainbow
TTITLE1=The Scorpions - Under the Same Sun
TTITLE2=Deep Purple - Wasted Sunset
TTITLE3=Kingdom Come - What Love Can Be
TTITLE4=Navareth - Love Hurts
TTITLE5=Sammy Hagar - Two Sides of Love
TTITLE6=Yngwie Malmsteen - Dreaming
TTITLE7=Accept - Breaking Up Again
TTITLE8=Cinderella - Don't Know What U Got
TTITLE9=Slade - Ooh La La in l..A
TTITLE10=Thin Lizzy - Sarah
TTITLE11=Y and T - I'll Cry For You
EXTD=
EXTT0=
EXTT1=
EXTT2=
EXTT3=
EXTT4=
EXTT5=
EXTT6=
EXTT7=
EXTT8=
EXTT9=
EXTT10=
EXTT11=
PLAYORDER=
